<svg xmlns="http://www.w3.org/2000/svg" xmlns:xlink="http://www.w3.org/1999/xlink" width="937" height="450" viewBox="0 0 937 450">
    <defs>
        <path id="a" d="M0 0h937v450H0z"/>
    </defs>
    <g fill="none" fill-rule="evenodd">
        <g>
            <mask id="b" fill="#fff">
                <use xlink:href="#a"/>
            </mask>
            <path stroke="#D5D5D5" d="M.5.5h936v449H.5z"/>
            <path stroke="#D5D5D5" d="M471.577 697.559V-3.724M1018.53 224.674H-1.167" mask="url(#b)"/>
        </g>
        <text fill="#000" fill-opacity=".7" font-family="OpenSans-SemiBold, Open Sans" font-size="17" font-weight="500">
            <tspan x="214.46" y="42">Main</tspan>
        </text>
        <text fill="#000" fill-opacity=".7" font-family="OpenSans-SemiBold, Open Sans" font-size="17" font-weight="500">
            <tspan x="661.685" y="42">Secondary</tspan>
        </text>
        <text fill="#000" fill-opacity=".7" font-family="OpenSans-SemiBold, Open Sans" font-size="17" font-weight="500">
            <tspan x="199.964" y="301">Disabled</tspan>
        </text>
        <text fill="#000" fill-opacity=".7" font-family="OpenSans-SemiBold, Open Sans" font-size="17" font-weight="500">
            <tspan x="646" y="301">Low Emphasis</tspan>
        </text>
        <g transform="translate(603 64)">
            <rect width="201" height="45" x=".5" y=".5" stroke="#42B549" rx="4"/>
            <path d="M56 12h90v22H56z"/>
            <text fill="#42B549" font-family="OpenSans-SemiBold, Open Sans" font-size="14" font-weight="500" transform="translate(56 12)">
                <tspan x=".467" y="15">Lorem Ipsum</tspan>
            </text>
        </g>
        <g transform="translate(603 337)">
            <rect width="202" height="46" rx="4"/>
            <path d="M56 12h90v22H56z"/>
            <text fill="#42B549" font-family="OpenSans-SemiBold, Open Sans" font-size="14" font-weight="500" transform="translate(56 12)">
                <tspan x=".467" y="15">Lorem Ipsum</tspan>
            </text>
        </g>
        <g transform="translate(134 65)">
            <rect width="202" height="46" fill="#42B549" rx="4"/>
            <path d="M56 12h90v22H56z"/>
            <text fill="#FFF" font-family="OpenSans-SemiBold, Open Sans" font-size="14" font-weight="500" transform="translate(56 12)">
                <tspan x=".467" y="15">Lorem Ipsum</tspan>
            </text>
        </g>
        <g transform="translate(134 135)">
            <rect width="202" height="46" fill="#FF5722" rx="4"/>
            <path d="M56 12h90v22H56z"/>
            <text fill="#FFF" font-family="OpenSans-SemiBold, Open Sans" font-size="14" font-weight="500" transform="translate(56 12)">
                <tspan x=".467" y="15">Lorem Ipsum</tspan>
            </text>
        </g>
        <g transform="translate(134 337)">
            <rect width="201" height="45" x=".5" y=".5" fill="#E0E0E0" stroke="#E0E0E0" rx="4"/>
            <path d="M56 12h90v22H56z"/>
            <text fill="#000" fill-opacity=".38" font-family="OpenSans-SemiBold, Open Sans" font-size="14" font-weight="500" transform="translate(56 12)">
                <tspan x=".467" y="15">Lorem Ipsum</tspan>
            </text>
        </g>
        <g transform="translate(603 133)">
            <rect width="201" height="47" x=".5" y=".5" stroke="#42B549" rx="4"/>
            <path d="M72 12h90v22H72z"/>
            <text fill="#42B549" font-family="OpenSans-SemiBold, Open Sans" font-size="14" font-weight="500" transform="translate(72 12)">
                <tspan x=".467" y="15">Lorem Ipsum</tspan>
            </text>
            <g>
                <path d="M40 12h24v24H40z"/>
                <path d="M49.056 18.407h-3.338l1.854 6.8h1.484z"/>
                <path fill="#42B549" fill-rule="nonzero" d="M51.502 32.47a1.038 1.038 0 1 0-2.077-.001 1.038 1.038 0 0 0 2.077 0zm1 0a2.038 2.038 0 1 1-4.076 0 2.038 2.038 0 0 1 4.076 0zM57.302 32.47a1.038 1.038 0 1 0-2.076-.002 1.038 1.038 0 0 0 2.076.002zm1 0a2.038 2.038 0 1 1-4.077 0 2.038 2.038 0 1 1 4.077 0zM41 16.167h3.288c.183 0 .328.102.36.221l3.132 11.488c.156.572.708.957 1.326.957h9.222a.5.5 0 1 0 0-1h-9.222c-.183 0-.329-.101-.361-.22l-3.131-11.488c-.157-.572-.708-.958-1.326-.958H41a.5.5 0 0 0 0 1z"/>
                <path fill="#42B549" fill-rule="nonzero" d="M50.126 17.907h-4.408a.5.5 0 1 0 0 1h4.408a.5.5 0 0 0 0-1zm-2.554 7.8h6.552a.5.5 0 0 0 0-1h-6.552a.5.5 0 1 0 0 1z"/>
                <g fill="#42B549" fill-rule="nonzero">
                    <path d="M60.806 19.15a4.234 4.234 0 1 0-8.468.001 4.234 4.234 0 0 0 8.468 0zm1 0a5.234 5.234 0 1 1-10.468 0 5.234 5.234 0 0 1 10.468 0z"/>
                    <path d="M54.339 19.566h4.545a.375.375 0 1 0 0-.75H54.34a.375.375 0 0 0 0 .75z"/>
                    <path d="M56.987 21.464v-4.546a.375.375 0 0 0-.75 0v4.546a.375.375 0 1 0 .75 0z"/>
                </g>
            </g>
        </g>
    </g>
</svg>
